<?xml version="1.0" encoding="UTF-8" standalone="no"?>
<svg
   height="24"
   viewBox="0 -960 960 960"
   width="24"
   fill="FFFFFF"
   version="1.1"
   id="svg1"
   xmlns="http://www.w3.org/2000/svg"
   xmlns:svg="http://www.w3.org/2000/svg">
  <defs
     id="defs1" />
  <path
     d="M 480.77,-20 Q 391,-20 310.96,-51.96 230.92,-83.92 168.92,-140.54 106.92,-197.15 67.46,-274 28,-350.85 20,-440 h 60 q 8,73.92 40.04,137.77 32.04,63.85 82.65,111.85 50.62,48 116.12,76.73 65.5,28.73 139.81,32.42 l -69.7,-69.69 42.16,-42.16 159.23,159.23 q -27.08,7.93 -54.46,10.89 Q 508.46,-20 480.77,-20 Z M 600,-220 v -80 H 372.31 q -29.92,0 -51.12,-21.19 Q 300,-342.39 300,-372.31 V -600 h -80 v -60 h 80 v -80 h 60 v 367.69 q 0,4.62 3.85,8.46 3.84,3.85 8.46,3.85 H 760 v 60 H 660 v 80 z m 0,-200 v -167.69 q 0,-4.62 -3.85,-8.46 -3.84,-3.85 -8.46,-3.85 H 420 v -60 h 167.69 q 29.92,0 51.12,21.19 21.19,21.2 21.19,51.12 V -420 Z m 280,-100 q -7.38,-73.92 -39.73,-137.77 -32.35,-63.85 -82.96,-111.85 -50.62,-48 -116.12,-76.73 -65.5,-28.73 -139.81,-32.42 l 69.7,69.69 -42.16,42.16 -159.23,-159.23 q 27.08,-7.93 54.46,-10.89 27.39,-2.96 55.08,-2.96 89.77,0 169.81,31.96 80.04,31.96 142.04,88.58 62,56.61 101.46,133.46 39.46,76.85 47.46,166 z"
     id="path1"
     style="fill:#ffffff;fill-opacity:1" />
</svg>
