<?xml version="1.0" encoding="UTF-8" standalone="no"?>
<svg
   height="24"
   viewBox="0 -960 960 960"
   width="24"
   fill="FFFFFF"
   version="1.1"
   id="svg1"
   xmlns="http://www.w3.org/2000/svg"
   xmlns:svg="http://www.w3.org/2000/svg">
  <defs
     id="defs1" />
  <path
     d="m 182.15,-140 q -14.38,-3.62 -26.46,-15.69 -12.07,-12.08 -15.69,-26.46 L 777.85,-820 q 15.61,4.23 26.76,15.69 11.16,11.46 16,26.46 z M 140,-395.46 v -84.31 L 480.23,-820 h 84.31 z m 0,-297.62 v -54.61 q 0,-30.31 21,-51.31 21,-21 51.31,-21 h 54.61 z m 680,128.54 v 84.31 l -12.85,12.84 q -15,-7.3 -31.53,-11.84 -16.54,-4.54 -34.39,-6.54 z M 395.46,-140 l 88,-88 q 2,17.85 6.54,34.38 4.54,16.54 11.85,31.54 L 479.77,-140 Z M 680,-229.23 H 560 v -60 h 120 v -120 h 60 v 120 h 120 v 60 H 740 v 120 h -60 z"
     id="path1"
     style="fill:#ffffff;fill-opacity:1" />
</svg>
