<?xml version="1.0" encoding="UTF-8" standalone="no"?>
<svg
   height="24"
   viewBox="0 -960 960 960"
   width="24"
   fill="FFFFFF"
   version="1.1"
   id="svg1"
   xmlns="http://www.w3.org/2000/svg"
   xmlns:svg="http://www.w3.org/2000/svg">
  <defs
     id="defs1" />
  <path
     d="m 595.38,-364.62 z m -259.99,123.39 q 7.3,0.61 14.25,0.92 6.94,0.31 14.98,0.31 8.46,0 15.76,-0.31 7.31,-0.31 15,-0.92 v 64.31 q 0,5.38 3.47,8.84 3.46,3.46 8.84,3.46 h 375.39 q 5.38,0 8.84,-3.46 3.46,-3.46 3.46,-8.84 v -375.39 q 0,-5.38 -3.46,-8.84 -3.46,-3.47 -8.84,-3.47 h -64.31 q 0.61,-7.69 0.92,-15 0.31,-7.3 0.31,-15.76 0,-8.04 -0.31,-14.98 -0.31,-6.95 -0.92,-14.25 h 64.31 q 29.82,0 51.06,21.24 21.24,21.24 21.24,51.06 v 375.39 q 0,29.82 -21.24,51.06 -21.24,21.24 -51.06,21.24 H 407.69 q -29.82,0 -51.06,-21.24 -21.24,-21.24 -21.24,-51.06 z m 29.3,-94.16 q -108.61,0 -184.34,-75.65 -75.73,-75.66 -75.73,-184.27 0,-108.61 75.65,-184.34 75.66,-75.73 184.27,-75.73 108.61,0 184.34,75.65 75.73,75.66 75.73,184.27 0,108.61 -75.65,184.34 -75.66,75.73 -184.27,75.73 z m -0.07,-59.99 q 83,0 141.5,-58.5 58.5,-58.5 58.5,-141.5 0,-83 -58.5,-141.5 -58.5,-58.5 -141.5,-58.5 -83,0 -141.5,58.5 -58.5,58.5 -58.5,141.5 0,83 58.5,141.5 58.5,58.5 141.5,58.5 z m 0,-200 z"
     id="path1"
     style="fill:#ffffff;fill-opacity:1" />
</svg>
