<?xml version="1.0" encoding="UTF-8" standalone="no"?>
<svg
   width="500"
   height="500"
   version="1.1"
   id="svg335"
   xmlns="http://www.w3.org/2000/svg"
   xmlns:svg="http://www.w3.org/2000/svg">
  <defs
     id="defs333">
    <clipPath
       id="clip-path-dot-color">
      <rect
         x="18"
         y="146"
         width="16"
         height="16"
         id="rect1" />
      <rect
         x="18"
         y="162"
         width="16"
         height="16"
         id="rect2" />
      <rect
         x="18"
         y="194"
         width="16"
         height="16"
         id="rect3" />
      <rect
         x="18"
         y="226"
         width="16"
         height="16"
         id="rect4" />
      <rect
         x="18"
         y="258"
         width="16"
         height="16"
         id="rect5" />
      <rect
         x="18"
         y="290"
         width="16"
         height="16"
         id="rect6" />
      <rect
         x="18"
         y="306"
         width="16"
         height="16"
         id="rect7" />
      <rect
         x="34"
         y="146"
         width="16"
         height="16"
         id="rect8" />
      <rect
         x="34"
         y="194"
         width="16"
         height="16"
         id="rect9" />
      <rect
         x="34"
         y="226"
         width="16"
         height="16"
         id="rect10" />
      <rect
         x="34"
         y="242"
         width="16"
         height="16"
         id="rect11" />
      <rect
         x="34"
         y="258"
         width="16"
         height="16"
         id="rect12" />
      <rect
         x="34"
         y="306"
         width="16"
         height="16"
         id="rect13" />
      <rect
         x="50"
         y="162"
         width="16"
         height="16"
         id="rect14" />
      <rect
         x="50"
         y="178"
         width="16"
         height="16"
         id="rect15" />
      <rect
         x="50"
         y="194"
         width="16"
         height="16"
         id="rect16" />
      <rect
         x="50"
         y="210"
         width="16"
         height="16"
         id="rect17" />
      <rect
         x="50"
         y="242"
         width="16"
         height="16"
         id="rect18" />
      <rect
         x="50"
         y="258"
         width="16"
         height="16"
         id="rect19" />
      <rect
         x="50"
         y="322"
         width="16"
         height="16"
         id="rect20" />
      <rect
         x="50"
         y="338"
         width="16"
         height="16"
         id="rect21" />
      <rect
         x="66"
         y="178"
         width="16"
         height="16"
         id="rect22" />
      <rect
         x="66"
         y="210"
         width="16"
         height="16"
         id="rect23" />
      <rect
         x="66"
         y="258"
         width="16"
         height="16"
         id="rect24" />
      <rect
         x="66"
         y="274"
         width="16"
         height="16"
         id="rect25" />
      <rect
         x="66"
         y="290"
         width="16"
         height="16"
         id="rect26" />
      <rect
         x="66"
         y="322"
         width="16"
         height="16"
         id="rect27" />
      <rect
         x="66"
         y="338"
         width="16"
         height="16"
         id="rect28" />
      <rect
         x="82"
         y="210"
         width="16"
         height="16"
         id="rect29" />
      <rect
         x="82"
         y="274"
         width="16"
         height="16"
         id="rect30" />
      <rect
         x="82"
         y="306"
         width="16"
         height="16"
         id="rect31" />
      <rect
         x="82"
         y="322"
         width="16"
         height="16"
         id="rect32" />
      <rect
         x="82"
         y="338"
         width="16"
         height="16"
         id="rect33" />
      <rect
         x="98"
         y="162"
         width="16"
         height="16"
         id="rect34" />
      <rect
         x="98"
         y="194"
         width="16"
         height="16"
         id="rect35" />
      <rect
         x="98"
         y="210"
         width="16"
         height="16"
         id="rect36" />
      <rect
         x="98"
         y="242"
         width="16"
         height="16"
         id="rect37" />
      <rect
         x="98"
         y="258"
         width="16"
         height="16"
         id="rect38" />
      <rect
         x="98"
         y="290"
         width="16"
         height="16"
         id="rect39" />
      <rect
         x="98"
         y="306"
         width="16"
         height="16"
         id="rect40" />
      <rect
         x="98"
         y="338"
         width="16"
         height="16"
         id="rect41" />
      <rect
         x="114"
         y="146"
         width="16"
         height="16"
         id="rect42" />
      <rect
         x="114"
         y="178"
         width="16"
         height="16"
         id="rect43" />
      <rect
         x="114"
         y="210"
         width="16"
         height="16"
         id="rect44" />
      <rect
         x="114"
         y="242"
         width="16"
         height="16"
         id="rect45" />
      <rect
         x="114"
         y="274"
         width="16"
         height="16"
         id="rect46" />
      <rect
         x="114"
         y="306"
         width="16"
         height="16"
         id="rect47" />
      <rect
         x="114"
         y="338"
         width="16"
         height="16"
         id="rect48" />
      <rect
         x="130"
         y="162"
         width="16"
         height="16"
         id="rect49" />
      <rect
         x="130"
         y="178"
         width="16"
         height="16"
         id="rect50" />
      <rect
         x="130"
         y="242"
         width="16"
         height="16"
         id="rect51" />
      <rect
         x="130"
         y="258"
         width="16"
         height="16"
         id="rect52" />
      <rect
         x="130"
         y="274"
         width="16"
         height="16"
         id="rect53" />
      <rect
         x="130"
         y="338"
         width="16"
         height="16"
         id="rect54" />
      <rect
         x="146"
         y="34"
         width="16"
         height="16"
         id="rect55" />
      <rect
         x="146"
         y="114"
         width="16"
         height="16"
         id="rect56" />
      <rect
         x="146"
         y="130"
         width="16"
         height="16"
         id="rect57" />
      <rect
         x="146"
         y="146"
         width="16"
         height="16"
         id="rect58" />
      <rect
         x="146"
         y="162"
         width="16"
         height="16"
         id="rect59" />
      <rect
         x="146"
         y="194"
         width="16"
         height="16"
         id="rect60" />
      <rect
         x="146"
         y="242"
         width="16"
         height="16"
         id="rect61" />
      <rect
         x="146"
         y="274"
         width="16"
         height="16"
         id="rect62" />
      <rect
         x="146"
         y="290"
         width="16"
         height="16"
         id="rect63" />
      <rect
         x="146"
         y="322"
         width="16"
         height="16"
         id="rect64" />
      <rect
         x="146"
         y="354"
         width="16"
         height="16"
         id="rect65" />
      <rect
         x="146"
         y="450"
         width="16"
         height="16"
         id="rect66" />
      <rect
         x="146"
         y="466"
         width="16"
         height="16"
         id="rect67" />
      <rect
         x="162"
         y="18"
         width="16"
         height="16"
         id="rect68" />
      <rect
         x="162"
         y="34"
         width="16"
         height="16"
         id="rect69" />
      <rect
         x="162"
         y="50"
         width="16"
         height="16"
         id="rect70" />
      <rect
         x="162"
         y="66"
         width="16"
         height="16"
         id="rect71" />
      <rect
         x="162"
         y="98"
         width="16"
         height="16"
         id="rect72" />
      <rect
         x="162"
         y="130"
         width="16"
         height="16"
         id="rect73" />
      <rect
         x="162"
         y="146"
         width="16"
         height="16"
         id="rect74" />
      <rect
         x="162"
         y="162"
         width="16"
         height="16"
         id="rect75" />
      <rect
         x="162"
         y="178"
         width="16"
         height="16"
         id="rect76" />
      <rect
         x="162"
         y="210"
         width="16"
         height="16"
         id="rect77" />
      <rect
         x="162"
         y="226"
         width="16"
         height="16"
         id="rect78" />
      <rect
         x="162"
         y="306"
         width="16"
         height="16"
         id="rect79" />
      <rect
         x="162"
         y="322"
         width="16"
         height="16"
         id="rect80" />
      <rect
         x="162"
         y="338"
         width="16"
         height="16"
         id="rect81" />
      <rect
         x="162"
         y="386"
         width="16"
         height="16"
         id="rect82" />
      <rect
         x="162"
         y="402"
         width="16"
         height="16"
         id="rect83" />
      <rect
         x="162"
         y="418"
         width="16"
         height="16"
         id="rect84" />
      <rect
         x="162"
         y="450"
         width="16"
         height="16"
         id="rect85" />
      <rect
         x="178"
         y="66"
         width="16"
         height="16"
         id="rect86" />
      <rect
         x="178"
         y="98"
         width="16"
         height="16"
         id="rect87" />
      <rect
         x="178"
         y="114"
         width="16"
         height="16"
         id="rect88" />
      <rect
         x="178"
         y="130"
         width="16"
         height="16"
         id="rect89" />
      <rect
         x="178"
         y="146"
         width="16"
         height="16"
         id="rect90" />
      <rect
         x="178"
         y="162"
         width="16"
         height="16"
         id="rect91" />
      <rect
         x="178"
         y="178"
         width="16"
         height="16"
         id="rect92" />
      <rect
         x="178"
         y="226"
         width="16"
         height="16"
         id="rect93" />
      <rect
         x="178"
         y="274"
         width="16"
         height="16"
         id="rect94" />
      <rect
         x="178"
         y="290"
         width="16"
         height="16"
         id="rect95" />
      <rect
         x="178"
         y="338"
         width="16"
         height="16"
         id="rect96" />
      <rect
         x="178"
         y="354"
         width="16"
         height="16"
         id="rect97" />
      <rect
         x="178"
         y="370"
         width="16"
         height="16"
         id="rect98" />
      <rect
         x="178"
         y="386"
         width="16"
         height="16"
         id="rect99" />
      <rect
         x="178"
         y="418"
         width="16"
         height="16"
         id="rect100" />
      <rect
         x="178"
         y="434"
         width="16"
         height="16"
         id="rect101" />
      <rect
         x="194"
         y="50"
         width="16"
         height="16"
         id="rect102" />
      <rect
         x="194"
         y="130"
         width="16"
         height="16"
         id="rect103" />
      <rect
         x="194"
         y="162"
         width="16"
         height="16"
         id="rect104" />
      <rect
         x="194"
         y="194"
         width="16"
         height="16"
         id="rect105" />
      <rect
         x="194"
         y="226"
         width="16"
         height="16"
         id="rect106" />
      <rect
         x="194"
         y="338"
         width="16"
         height="16"
         id="rect107" />
      <rect
         x="194"
         y="370"
         width="16"
         height="16"
         id="rect108" />
      <rect
         x="194"
         y="386"
         width="16"
         height="16"
         id="rect109" />
      <rect
         x="194"
         y="418"
         width="16"
         height="16"
         id="rect110" />
      <rect
         x="210"
         y="18"
         width="16"
         height="16"
         id="rect111" />
      <rect
         x="210"
         y="50"
         width="16"
         height="16"
         id="rect112" />
      <rect
         x="210"
         y="66"
         width="16"
         height="16"
         id="rect113" />
      <rect
         x="210"
         y="114"
         width="16"
         height="16"
         id="rect114" />
      <rect
         x="210"
         y="146"
         width="16"
         height="16"
         id="rect115" />
      <rect
         x="210"
         y="178"
         width="16"
         height="16"
         id="rect116" />
      <rect
         x="210"
         y="194"
         width="16"
         height="16"
         id="rect117" />
      <rect
         x="210"
         y="210"
         width="16"
         height="16"
         id="rect118" />
      <rect
         x="210"
         y="242"
         width="16"
         height="16"
         id="rect119" />
      <rect
         x="210"
         y="258"
         width="16"
         height="16"
         id="rect120" />
      <rect
         x="210"
         y="322"
         width="16"
         height="16"
         id="rect121" />
      <rect
         x="210"
         y="338"
         width="16"
         height="16"
         id="rect122" />
      <rect
         x="210"
         y="354"
         width="16"
         height="16"
         id="rect123" />
      <rect
         x="210"
         y="370"
         width="16"
         height="16"
         id="rect124" />
      <rect
         x="210"
         y="450"
         width="16"
         height="16"
         id="rect125" />
      <rect
         x="226"
         y="146"
         width="16"
         height="16"
         id="rect126" />
      <rect
         x="226"
         y="178"
         width="16"
         height="16"
         id="rect127" />
      <rect
         x="226"
         y="242"
         width="16"
         height="16"
         id="rect128" />
      <rect
         x="226"
         y="274"
         width="16"
         height="16"
         id="rect129" />
      <rect
         x="226"
         y="290"
         width="16"
         height="16"
         id="rect130" />
      <rect
         x="226"
         y="306"
         width="16"
         height="16"
         id="rect131" />
      <rect
         x="226"
         y="322"
         width="16"
         height="16"
         id="rect132" />
      <rect
         x="226"
         y="338"
         width="16"
         height="16"
         id="rect133" />
      <rect
         x="226"
         y="370"
         width="16"
         height="16"
         id="rect134" />
      <rect
         x="226"
         y="402"
         width="16"
         height="16"
         id="rect135" />
      <rect
         x="226"
         y="418"
         width="16"
         height="16"
         id="rect136" />
      <rect
         x="226"
         y="466"
         width="16"
         height="16"
         id="rect137" />
      <rect
         x="242"
         y="34"
         width="16"
         height="16"
         id="rect138" />
      <rect
         x="242"
         y="98"
         width="16"
         height="16"
         id="rect139" />
      <rect
         x="242"
         y="114"
         width="16"
         height="16"
         id="rect140" />
      <rect
         x="242"
         y="162"
         width="16"
         height="16"
         id="rect141" />
      <rect
         x="242"
         y="194"
         width="16"
         height="16"
         id="rect142" />
      <rect
         x="242"
         y="210"
         width="16"
         height="16"
         id="rect143" />
      <rect
         x="242"
         y="258"
         width="16"
         height="16"
         id="rect144" />
      <rect
         x="242"
         y="274"
         width="16"
         height="16"
         id="rect145" />
      <rect
         x="242"
         y="290"
         width="16"
         height="16"
         id="rect146" />
      <rect
         x="242"
         y="338"
         width="16"
         height="16"
         id="rect147" />
      <rect
         x="242"
         y="354"
         width="16"
         height="16"
         id="rect148" />
      <rect
         x="242"
         y="370"
         width="16"
         height="16"
         id="rect149" />
      <rect
         x="242"
         y="386"
         width="16"
         height="16"
         id="rect150" />
      <rect
         x="258"
         y="18"
         width="16"
         height="16"
         id="rect151" />
      <rect
         x="258"
         y="50"
         width="16"
         height="16"
         id="rect152" />
      <rect
         x="258"
         y="66"
         width="16"
         height="16"
         id="rect153" />
      <rect
         x="258"
         y="178"
         width="16"
         height="16"
         id="rect154" />
      <rect
         x="258"
         y="210"
         width="16"
         height="16"
         id="rect155" />
      <rect
         x="258"
         y="226"
         width="16"
         height="16"
         id="rect156" />
      <rect
         x="258"
         y="338"
         width="16"
         height="16"
         id="rect157" />
      <rect
         x="258"
         y="354"
         width="16"
         height="16"
         id="rect158" />
      <rect
         x="258"
         y="370"
         width="16"
         height="16"
         id="rect159" />
      <rect
         x="258"
         y="402"
         width="16"
         height="16"
         id="rect160" />
      <rect
         x="258"
         y="418"
         width="16"
         height="16"
         id="rect161" />
      <rect
         x="258"
         y="434"
         width="16"
         height="16"
         id="rect162" />
      <rect
         x="258"
         y="466"
         width="16"
         height="16"
         id="rect163" />
      <rect
         x="274"
         y="18"
         width="16"
         height="16"
         id="rect164" />
      <rect
         x="274"
         y="98"
         width="16"
         height="16"
         id="rect165" />
      <rect
         x="274"
         y="114"
         width="16"
         height="16"
         id="rect166" />
      <rect
         x="274"
         y="162"
         width="16"
         height="16"
         id="rect167" />
      <rect
         x="274"
         y="178"
         width="16"
         height="16"
         id="rect168" />
      <rect
         x="274"
         y="194"
         width="16"
         height="16"
         id="rect169" />
      <rect
         x="274"
         y="258"
         width="16"
         height="16"
         id="rect170" />
      <rect
         x="274"
         y="290"
         width="16"
         height="16"
         id="rect171" />
      <rect
         x="274"
         y="322"
         width="16"
         height="16"
         id="rect172" />
      <rect
         x="274"
         y="338"
         width="16"
         height="16"
         id="rect173" />
      <rect
         x="274"
         y="418"
         width="16"
         height="16"
         id="rect174" />
      <rect
         x="274"
         y="434"
         width="16"
         height="16"
         id="rect175" />
      <rect
         x="290"
         y="18"
         width="16"
         height="16"
         id="rect176" />
      <rect
         x="290"
         y="34"
         width="16"
         height="16"
         id="rect177" />
      <rect
         x="290"
         y="50"
         width="16"
         height="16"
         id="rect178" />
      <rect
         x="290"
         y="66"
         width="16"
         height="16"
         id="rect179" />
      <rect
         x="290"
         y="82"
         width="16"
         height="16"
         id="rect180" />
      <rect
         x="290"
         y="130"
         width="16"
         height="16"
         id="rect181" />
      <rect
         x="290"
         y="146"
         width="16"
         height="16"
         id="rect182" />
      <rect
         x="290"
         y="162"
         width="16"
         height="16"
         id="rect183" />
      <rect
         x="290"
         y="210"
         width="16"
         height="16"
         id="rect184" />
      <rect
         x="290"
         y="274"
         width="16"
         height="16"
         id="rect185" />
      <rect
         x="290"
         y="306"
         width="16"
         height="16"
         id="rect186" />
      <rect
         x="290"
         y="322"
         width="16"
         height="16"
         id="rect187" />
      <rect
         x="290"
         y="338"
         width="16"
         height="16"
         id="rect188" />
      <rect
         x="290"
         y="354"
         width="16"
         height="16"
         id="rect189" />
      <rect
         x="290"
         y="370"
         width="16"
         height="16"
         id="rect190" />
      <rect
         x="290"
         y="386"
         width="16"
         height="16"
         id="rect191" />
      <rect
         x="290"
         y="402"
         width="16"
         height="16"
         id="rect192" />
      <rect
         x="290"
         y="466"
         width="16"
         height="16"
         id="rect193" />
      <rect
         x="306"
         y="18"
         width="16"
         height="16"
         id="rect194" />
      <rect
         x="306"
         y="34"
         width="16"
         height="16"
         id="rect195" />
      <rect
         x="306"
         y="66"
         width="16"
         height="16"
         id="rect196" />
      <rect
         x="306"
         y="98"
         width="16"
         height="16"
         id="rect197" />
      <rect
         x="306"
         y="114"
         width="16"
         height="16"
         id="rect198" />
      <rect
         x="306"
         y="162"
         width="16"
         height="16"
         id="rect199" />
      <rect
         x="306"
         y="178"
         width="16"
         height="16"
         id="rect200" />
      <rect
         x="306"
         y="226"
         width="16"
         height="16"
         id="rect201" />
      <rect
         x="306"
         y="242"
         width="16"
         height="16"
         id="rect202" />
      <rect
         x="306"
         y="274"
         width="16"
         height="16"
         id="rect203" />
      <rect
         x="306"
         y="290"
         width="16"
         height="16"
         id="rect204" />
      <rect
         x="306"
         y="322"
         width="16"
         height="16"
         id="rect205" />
      <rect
         x="306"
         y="338"
         width="16"
         height="16"
         id="rect206" />
      <rect
         x="306"
         y="402"
         width="16"
         height="16"
         id="rect207" />
      <rect
         x="306"
         y="418"
         width="16"
         height="16"
         id="rect208" />
      <rect
         x="306"
         y="466"
         width="16"
         height="16"
         id="rect209" />
      <rect
         x="322"
         y="18"
         width="16"
         height="16"
         id="rect210" />
      <rect
         x="322"
         y="66"
         width="16"
         height="16"
         id="rect211" />
      <rect
         x="322"
         y="82"
         width="16"
         height="16"
         id="rect212" />
      <rect
         x="322"
         y="98"
         width="16"
         height="16"
         id="rect213" />
      <rect
         x="322"
         y="130"
         width="16"
         height="16"
         id="rect214" />
      <rect
         x="322"
         y="146"
         width="16"
         height="16"
         id="rect215" />
      <rect
         x="322"
         y="178"
         width="16"
         height="16"
         id="rect216" />
      <rect
         x="322"
         y="210"
         width="16"
         height="16"
         id="rect217" />
      <rect
         x="322"
         y="226"
         width="16"
         height="16"
         id="rect218" />
      <rect
         x="322"
         y="242"
         width="16"
         height="16"
         id="rect219" />
      <rect
         x="322"
         y="258"
         width="16"
         height="16"
         id="rect220" />
      <rect
         x="322"
         y="274"
         width="16"
         height="16"
         id="rect221" />
      <rect
         x="322"
         y="338"
         width="16"
         height="16"
         id="rect222" />
      <rect
         x="322"
         y="354"
         width="16"
         height="16"
         id="rect223" />
      <rect
         x="322"
         y="370"
         width="16"
         height="16"
         id="rect224" />
      <rect
         x="322"
         y="386"
         width="16"
         height="16"
         id="rect225" />
      <rect
         x="322"
         y="450"
         width="16"
         height="16"
         id="rect226" />
      <rect
         x="322"
         y="466"
         width="16"
         height="16"
         id="rect227" />
      <rect
         x="338"
         y="18"
         width="16"
         height="16"
         id="rect228" />
      <rect
         x="338"
         y="66"
         width="16"
         height="16"
         id="rect229" />
      <rect
         x="338"
         y="98"
         width="16"
         height="16"
         id="rect230" />
      <rect
         x="338"
         y="114"
         width="16"
         height="16"
         id="rect231" />
      <rect
         x="338"
         y="194"
         width="16"
         height="16"
         id="rect232" />
      <rect
         x="338"
         y="226"
         width="16"
         height="16"
         id="rect233" />
      <rect
         x="338"
         y="242"
         width="16"
         height="16"
         id="rect234" />
      <rect
         x="338"
         y="290"
         width="16"
         height="16"
         id="rect235" />
      <rect
         x="338"
         y="322"
         width="16"
         height="16"
         id="rect236" />
      <rect
         x="338"
         y="338"
         width="16"
         height="16"
         id="rect237" />
      <rect
         x="338"
         y="354"
         width="16"
         height="16"
         id="rect238" />
      <rect
         x="338"
         y="370"
         width="16"
         height="16"
         id="rect239" />
      <rect
         x="338"
         y="386"
         width="16"
         height="16"
         id="rect240" />
      <rect
         x="338"
         y="402"
         width="16"
         height="16"
         id="rect241" />
      <rect
         x="338"
         y="434"
         width="16"
         height="16"
         id="rect242" />
      <rect
         x="338"
         y="466"
         width="16"
         height="16"
         id="rect243" />
      <rect
         x="354"
         y="146"
         width="16"
         height="16"
         id="rect244" />
      <rect
         x="354"
         y="194"
         width="16"
         height="16"
         id="rect245" />
      <rect
         x="354"
         y="210"
         width="16"
         height="16"
         id="rect246" />
      <rect
         x="354"
         y="226"
         width="16"
         height="16"
         id="rect247" />
      <rect
         x="354"
         y="242"
         width="16"
         height="16"
         id="rect248" />
      <rect
         x="354"
         y="258"
         width="16"
         height="16"
         id="rect249" />
      <rect
         x="354"
         y="290"
         width="16"
         height="16"
         id="rect250" />
      <rect
         x="354"
         y="306"
         width="16"
         height="16"
         id="rect251" />
      <rect
         x="354"
         y="338"
         width="16"
         height="16"
         id="rect252" />
      <rect
         x="354"
         y="402"
         width="16"
         height="16"
         id="rect253" />
      <rect
         x="354"
         y="418"
         width="16"
         height="16"
         id="rect254" />
      <rect
         x="354"
         y="434"
         width="16"
         height="16"
         id="rect255" />
      <rect
         x="354"
         y="450"
         width="16"
         height="16"
         id="rect256" />
      <rect
         x="370"
         y="146"
         width="16"
         height="16"
         id="rect257" />
      <rect
         x="370"
         y="162"
         width="16"
         height="16"
         id="rect258" />
      <rect
         x="370"
         y="178"
         width="16"
         height="16"
         id="rect259" />
      <rect
         x="370"
         y="194"
         width="16"
         height="16"
         id="rect260" />
      <rect
         x="370"
         y="210"
         width="16"
         height="16"
         id="rect261" />
      <rect
         x="370"
         y="226"
         width="16"
         height="16"
         id="rect262" />
      <rect
         x="370"
         y="242"
         width="16"
         height="16"
         id="rect263" />
      <rect
         x="370"
         y="258"
         width="16"
         height="16"
         id="rect264" />
      <rect
         x="370"
         y="322"
         width="16"
         height="16"
         id="rect265" />
      <rect
         x="370"
         y="338"
         width="16"
         height="16"
         id="rect266" />
      <rect
         x="370"
         y="370"
         width="16"
         height="16"
         id="rect267" />
      <rect
         x="370"
         y="402"
         width="16"
         height="16"
         id="rect268" />
      <rect
         x="386"
         y="162"
         width="16"
         height="16"
         id="rect269" />
      <rect
         x="386"
         y="178"
         width="16"
         height="16"
         id="rect270" />
      <rect
         x="386"
         y="194"
         width="16"
         height="16"
         id="rect271" />
      <rect
         x="386"
         y="226"
         width="16"
         height="16"
         id="rect272" />
      <rect
         x="386"
         y="242"
         width="16"
         height="16"
         id="rect273" />
      <rect
         x="386"
         y="274"
         width="16"
         height="16"
         id="rect274" />
      <rect
         x="386"
         y="322"
         width="16"
         height="16"
         id="rect275" />
      <rect
         x="386"
         y="338"
         width="16"
         height="16"
         id="rect276" />
      <rect
         x="386"
         y="402"
         width="16"
         height="16"
         id="rect277" />
      <rect
         x="386"
         y="418"
         width="16"
         height="16"
         id="rect278" />
      <rect
         x="386"
         y="450"
         width="16"
         height="16"
         id="rect279" />
      <rect
         x="402"
         y="178"
         width="16"
         height="16"
         id="rect280" />
      <rect
         x="402"
         y="194"
         width="16"
         height="16"
         id="rect281" />
      <rect
         x="402"
         y="258"
         width="16"
         height="16"
         id="rect282" />
      <rect
         x="402"
         y="274"
         width="16"
         height="16"
         id="rect283" />
      <rect
         x="402"
         y="306"
         width="16"
         height="16"
         id="rect284" />
      <rect
         x="402"
         y="322"
         width="16"
         height="16"
         id="rect285" />
      <rect
         x="402"
         y="338"
         width="16"
         height="16"
         id="rect286" />
      <rect
         x="402"
         y="354"
         width="16"
         height="16"
         id="rect287" />
      <rect
         x="402"
         y="370"
         width="16"
         height="16"
         id="rect288" />
      <rect
         x="402"
         y="386"
         width="16"
         height="16"
         id="rect289" />
      <rect
         x="402"
         y="402"
         width="16"
         height="16"
         id="rect290" />
      <rect
         x="402"
         y="450"
         width="16"
         height="16"
         id="rect291" />
      <rect
         x="418"
         y="226"
         width="16"
         height="16"
         id="rect292" />
      <rect
         x="418"
         y="242"
         width="16"
         height="16"
         id="rect293" />
      <rect
         x="418"
         y="306"
         width="16"
         height="16"
         id="rect294" />
      <rect
         x="418"
         y="322"
         width="16"
         height="16"
         id="rect295" />
      <rect
         x="418"
         y="338"
         width="16"
         height="16"
         id="rect296" />
      <rect
         x="418"
         y="386"
         width="16"
         height="16"
         id="rect297" />
      <rect
         x="418"
         y="418"
         width="16"
         height="16"
         id="rect298" />
      <rect
         x="418"
         y="434"
         width="16"
         height="16"
         id="rect299" />
      <rect
         x="418"
         y="450"
         width="16"
         height="16"
         id="rect300" />
      <rect
         x="434"
         y="178"
         width="16"
         height="16"
         id="rect301" />
      <rect
         x="434"
         y="194"
         width="16"
         height="16"
         id="rect302" />
      <rect
         x="434"
         y="226"
         width="16"
         height="16"
         id="rect303" />
      <rect
         x="434"
         y="242"
         width="16"
         height="16"
         id="rect304" />
      <rect
         x="434"
         y="258"
         width="16"
         height="16"
         id="rect305" />
      <rect
         x="434"
         y="274"
         width="16"
         height="16"
         id="rect306" />
      <rect
         x="434"
         y="322"
         width="16"
         height="16"
         id="rect307" />
      <rect
         x="434"
         y="338"
         width="16"
         height="16"
         id="rect308" />
      <rect
         x="434"
         y="354"
         width="16"
         height="16"
         id="rect309" />
      <rect
         x="434"
         y="370"
         width="16"
         height="16"
         id="rect310" />
      <rect
         x="434"
         y="386"
         width="16"
         height="16"
         id="rect311" />
      <rect
         x="434"
         y="402"
         width="16"
         height="16"
         id="rect312" />
      <rect
         x="434"
         y="434"
         width="16"
         height="16"
         id="rect313" />
      <rect
         x="434"
         y="450"
         width="16"
         height="16"
         id="rect314" />
      <rect
         x="450"
         y="146"
         width="16"
         height="16"
         id="rect315" />
      <rect
         x="450"
         y="210"
         width="16"
         height="16"
         id="rect316" />
      <rect
         x="450"
         y="226"
         width="16"
         height="16"
         id="rect317" />
      <rect
         x="450"
         y="242"
         width="16"
         height="16"
         id="rect318" />
      <rect
         x="450"
         y="258"
         width="16"
         height="16"
         id="rect319" />
      <rect
         x="450"
         y="402"
         width="16"
         height="16"
         id="rect320" />
      <rect
         x="450"
         y="418"
         width="16"
         height="16"
         id="rect321" />
      <rect
         x="450"
         y="434"
         width="16"
         height="16"
         id="rect322" />
      <rect
         x="450"
         y="466"
         width="16"
         height="16"
         id="rect323" />
      <rect
         x="466"
         y="194"
         width="16"
         height="16"
         id="rect324" />
      <rect
         x="466"
         y="290"
         width="16"
         height="16"
         id="rect325" />
      <rect
         x="466"
         y="322"
         width="16"
         height="16"
         id="rect326" />
      <rect
         x="466"
         y="354"
         width="16"
         height="16"
         id="rect327" />
      <rect
         x="466"
         y="370"
         width="16"
         height="16"
         id="rect328" />
      <rect
         x="466"
         y="402"
         width="16"
         height="16"
         id="rect329" />
      <rect
         x="466"
         y="434"
         width="16"
         height="16"
         id="rect330" />
      <path
         clip-rule="evenodd"
         d="M 18,18 V 130 H 130 V 18 Z m 16,16 h 80 v 80 H 34 Z"
         id="path330" />
      <rect
         x="50"
         y="50"
         width="48"
         height="48"
         id="rect331" />
      <path
         clip-rule="evenodd"
         d="M 370,18 V 130 H 482 V 18 Z m 16,16 h 80 v 80 h -80 z"
         transform="rotate(90,426,74)"
         id="path331" />
      <rect
         x="402"
         y="50"
         width="48"
         height="48"
         transform="rotate(90,426,74)"
         id="rect332" />
      <path
         clip-rule="evenodd"
         d="M 18,370 V 482 H 130 V 370 Z m 16,16 h 80 v 80 H 34 Z"
         transform="rotate(-90,74,426)"
         id="path332" />
      <rect
         x="50"
         y="402"
         width="48"
         height="48"
         transform="rotate(-90,74,426)"
         id="rect333" />
    </clipPath>
  </defs>
  <rect
     x="0"
     y="0"
     height="500"
     width="500"
     clip-path="url(#clip-path-dot-color)"
     fill="#000000"
     id="rect335" />
</svg>
