<?xml version="1.0" encoding="UTF-8" standalone="no"?>
<svg
   height="24px"
   viewBox="0 -960 960 960"
   width="24px"
   fill="FFFFFF"
   version="1.1"
   id="svg1"
   sodipodi:docname="favicon.svg"
   inkscape:version="1.4 (86a8ad7, 2024-10-11)"
   xmlns:inkscape="http://www.inkscape.org/namespaces/inkscape"
   xmlns:sodipodi="http://sodipodi.sourceforge.net/DTD/sodipodi-0.dtd"
   xmlns:xlink="http://www.w3.org/1999/xlink"
   xmlns="http://www.w3.org/2000/svg"
   xmlns:svg="http://www.w3.org/2000/svg">
  <defs
     id="defs1">
    <linearGradient
       id="linearGradient1"
       inkscape:collect="always">
      <stop
         style="stop-color:#301cba;stop-opacity:1;"
         offset="0"
         id="stop1" />
      <stop
         style="stop-color:#dd2fea;stop-opacity:1;"
         offset="1"
         id="stop2" />
    </linearGradient>
    <linearGradient
       inkscape:collect="always"
       xlink:href="#linearGradient1"
       id="linearGradient2"
       x1="173.11566"
       y1="-793.88434"
       x2="786.88434"
       y2="-180.11566"
       gradientUnits="userSpaceOnUse" />
  </defs>
  <sodipodi:namedview
     id="namedview1"
     pagecolor="#505050"
     bordercolor="#eeeeee"
     borderopacity="1"
     inkscape:showpageshadow="0"
     inkscape:pageopacity="0"
     inkscape:pagecheckerboard="0"
     inkscape:deskcolor="#505050"
     inkscape:zoom="39.041667"
     inkscape:cx="11.987193"
     inkscape:cy="12"
     inkscape:window-width="1920"
     inkscape:window-height="1009"
     inkscape:window-x="2872"
     inkscape:window-y="393"
     inkscape:window-maximized="1"
     inkscape:current-layer="svg1" />
  <path
     d="M172-46q-53 0-89.5-36.5T46-172v-456q0-53 36.5-89.5T172-754h134l174-174 174 174h134q53 0 89.5 36.5T914-628v456q0 53-36.5 89.5T788-46H172Zm0-126h616v-456H172v456Zm45-68h526L570-472 450-312l-90-120-143 192Zm475-200q25 0 42.5-17.5T752-500q0-25-17.5-42.5T692-560q-25 0-42.5 17.5T632-500q0 25 17.5 42.5T692-440ZM413-754h134l-67-67-67 67ZM172-172v-456 456Z"
     id="path1"
     style="fill:url(#linearGradient2)" />
</svg>
