<?xml version="1.0" encoding="UTF-8" standalone="no"?>
<svg
   height="24"
   viewBox="0 -960 960 960"
   width="24"
   fill="FFFFFF"
   version="1.1"
   id="svg1"
   xmlns="http://www.w3.org/2000/svg"
   xmlns:svg="http://www.w3.org/2000/svg">
  <defs
     id="defs1" />
  <path
     d="m 522,-80 v -82 q 34,-5 66.5,-18 32.5,-13 61.5,-34 l 56,58 q -42,32 -88,51.5 -46,19.5 -96,24.5 z m -80,0 Q 304,-98 213,-199.5 122,-301 122,-438 q 0,-75 28.5,-140.5 28.5,-65.5 77,-114 48.5,-48.5 114,-77 Q 407,-798 482,-798 h 6 l -62,-62 56,-58 160,160 -160,160 -56,-56 64,-64 h -8 q -117,0 -198.5,81.5 Q 202,-555 202,-438 q 0,104 68,182.5 68,78.5 172,93.5 z m 322,-134 -58,-56 q 21,-29 34,-61.5 13,-32.5 18,-66.5 h 82 q -5,50 -24.5,96 -19.5,46 -51.5,88 z m 76,-264 h -82 q -5,-34 -18,-66.5 -13,-32.5 -34,-61.5 l 58,-56 q 32,39 51,86 19,47 25,98 z"
     id="path1"
     style="fill:#000000;fill-opacity:1;stroke:#ffffff;stroke-width:40;stroke-dasharray:none;stroke-opacity:1" />
</svg>
