<?xml version="1.0" encoding="UTF-8" standalone="no"?>
<svg
   height="24"
   viewBox="0 -960 960 960"
   width="24"
   fill="FFFFFF"
   version="1.1"
   id="svg1"
   xmlns="http://www.w3.org/2000/svg"
   xmlns:svg="http://www.w3.org/2000/svg">
  <defs
     id="defs1" />
  <path
     d="m 480,-480 z m -267.69,340 q -30.31,0 -51.31,-21 -21,-21 -21,-51.31 v -535.38 q 0,-30.31 21,-51.31 21,-21 51.31,-21 h 300 v 60 h -300 q -5.39,0 -8.85,3.46 -3.46,3.46 -3.46,8.85 v 535.38 q 0,5.39 3.46,8.85 3.46,3.46 8.85,3.46 h 535.38 q 5.39,0 8.85,-3.46 3.46,-3.46 3.46,-8.85 v -300 h 60 v 300 q 0,30.31 -21,51.31 -21,21 -51.31,21 z m 43.08,-152.31 H 704.61 L 565,-478.46 445,-322.69 360,-430.77 Z M 680,-600 v -80 h -80 v -60 h 80 v -80 h 60 v 80 h 80 v 60 h -80 v 80 z"
     id="path1"
     style="fill:#ffffff;fill-opacity:1" />
</svg>
