<?xml version="1.0" encoding="UTF-8" standalone="no"?>
<svg
   height="24"
   viewBox="0 -960 960 960"
   width="24"
   fill="FFFFFF"
   version="1.1"
   id="svg1"
   xmlns="http://www.w3.org/2000/svg"
   xmlns:svg="http://www.w3.org/2000/svg">
  <defs
     id="defs1" />
  <path
     d="m 480,-480 z m -280,360 q -33,0 -56.5,-23.5 Q 120,-167 120,-200 v -560 q 0,-33 23.5,-56.5 Q 167,-840 200,-840 h 320 v 80 H 200 v 560 h 560 v -320 h 80 v 320 q 0,33 -23.5,56.5 Q 793,-120 760,-120 Z m 40,-160 H 720 L 570,-480 450,-320 360,-440 Z m 440,-320 v -80 h -80 v -80 h 80 v -80 h 80 v 80 h 80 v 80 h -80 v 80 z"
     id="path1"
     style="fill:#ffffff;fill-opacity:1" />
</svg>
