<?xml version="1.0" encoding="UTF-8" standalone="no"?>
<svg
   height="24"
   viewBox="0 -960 960 960"
   width="24"
   fill="FFFFFF"
   version="1.1"
   id="svg1"
   xmlns="http://www.w3.org/2000/svg"
   xmlns:svg="http://www.w3.org/2000/svg">
  <defs
     id="defs1" />
  <path
     d="m 376,-313.85 104,-104 104,104 42.15,-42.15 -104,-104 104,-104 -42.15,-42.15 -104,104 -104,-104 -42.15,42.15 104,104 -104,104 z M 292.31,-140 Q 262,-140 241,-161 220,-182 220,-212.31 V -720 h -40 v -60 h 180 v -35.38 H 600 V -780 h 180 v 60 h -40 v 507.69 q 0,30.31 -21,51.31 -21,21 -51.31,21 z M 680,-720 H 280 v 507.69 q 0,4.62 3.85,8.46 3.84,3.85 8.46,3.85 h 375.38 q 4.62,0 8.46,-3.85 3.85,-3.84 3.85,-8.46 V -720 Z m -400,0 v 520 z"
     id="path1"
     style="fill:#ffffff;fill-opacity:1" />
</svg>
