<?xml version="1.0" encoding="UTF-8" standalone="no"?>
<svg
   height="24"
   viewBox="0 -960 960 960"
   width="24"
   fill="FFFFFF"
   version="1.1"
   id="svg1"
   xmlns="http://www.w3.org/2000/svg"
   xmlns:svg="http://www.w3.org/2000/svg">
  <defs
     id="defs1" />
  <path
     d="m 480,-290.77 q 13.73,0 23.02,-9.29 9.29,-9.29 9.29,-23.02 0,-13.73 -9.29,-23.02 -9.29,-9.28 -23.02,-9.28 -13.73,0 -23.02,9.28 -9.29,9.29 -9.29,23.02 0,13.73 9.29,23.02 9.29,9.29 23.02,9.29 z m -30,-146.15 h 60 v -240 H 450 Z M 480.07,-100 q -78.84,0 -148.21,-29.92 -69.37,-29.92 -120.68,-81.21 -51.31,-51.29 -81.25,-120.63 Q 100,-401.1 100,-479.93 q 0,-78.84 29.92,-148.21 29.92,-69.37 81.21,-120.68 51.29,-51.31 120.63,-81.25 69.34,-29.93 148.17,-29.93 78.84,0 148.21,29.92 69.37,29.92 120.68,81.21 51.31,51.29 81.25,120.63 29.93,69.34 29.93,148.17 0,78.84 -29.92,148.21 -29.92,69.37 -81.21,120.68 -51.29,51.31 -120.63,81.25 Q 558.9,-100 480.07,-100 Z M 480,-160 q 134,0 227,-93 93,-93 93,-227 0,-134 -93,-227 -93,-93 -227,-93 -134,0 -227,93 -93,93 -93,227 0,134 93,227 93,93 227,93 z m 0,-320 z"
     id="path1"
     style="fill:#ffffff;fill-opacity:1" />
</svg>
