<?xml version="1.0" encoding="UTF-8" standalone="no"?>
<svg
   height="24"
   viewBox="0 -960 960 960"
   width="24"
   fill="FFFFFF"
   version="1.1"
   id="svg1"
   xmlns="http://www.w3.org/2000/svg"
   xmlns:svg="http://www.w3.org/2000/svg">
  <defs
     id="defs1" />
  <path
     d="m 212.31,-140 q -29.83,0 -51.07,-21.24 Q 140,-182.48 140,-212.31 v -453.84 h 60 v 453.84 q 0,5.39 3.46,8.85 3.46,3.46 8.85,3.46 h 453.84 v 60 z m 146.15,-218.46 v 64.61 q -26.65,0 -45.63,-18.98 -18.98,-18.98 -18.98,-45.63 z m -64.61,-89.23 v -64.62 h 64.61 v 64.62 z m 0,-153.85 v -64.61 h 64.61 v 64.61 z m 64.61,-153.84 h -64.61 q 0,-26.66 18.98,-45.64 18.98,-18.98 45.63,-18.98 z m 89.23,461.53 v -64.61 h 64.62 v 64.61 z m 0,-461.53 V -820 h 64.62 v 64.62 z m 153.85,0 V -820 h 64.61 v 64.62 z m 0,461.53 v -64.61 h 64.61 v 64.61 z M 755.38,-755.38 V -820 q 26.66,0 45.64,18.98 18.98,18.98 18.98,45.64 z m 0,396.92 H 820 q 0,26.65 -18.98,45.63 -18.98,18.98 -45.64,18.98 z m 0,-89.23 v -64.62 H 820 v 64.62 z m 0,-153.85 v -64.61 H 820 v 64.61 z"
     id="path1"
     style="fill:#ffffff;fill-opacity:1" />
</svg>
