<?xml version="1.0" encoding="UTF-8" standalone="no"?>
<svg
   height="24"
   viewBox="0 -960 960 960"
   width="24"
   fill="FFFFFF"
   version="1.1"
   id="svg1"
   xmlns="http://www.w3.org/2000/svg"
   xmlns:svg="http://www.w3.org/2000/svg">
  <defs
     id="defs1" />
  <path
     d="m 366.15,-293.85 q -30.3,0 -51.3,-21 -21,-21 -21,-51.3 v -381.54 q 0,-30.31 21,-51.31 21,-21 51.3,-21 h 381.54 q 30.31,0 51.31,21 21,21 21,51.31 v 381.54 q 0,30.3 -21,51.3 -21,21 -51.31,21 z m 0,-60 h 381.54 q 4.62,0 8.46,-3.84 3.85,-3.85 3.85,-8.46 v -381.54 q 0,-4.62 -3.85,-8.46 -3.84,-3.85 -8.46,-3.85 H 366.15 q -4.61,0 -8.46,3.85 -3.84,3.84 -3.84,8.46 v 381.54 q 0,4.61 3.84,8.46 3.85,3.84 8.46,3.84 z M 204.62,-204.62 V -140 q -26.85,0 -45.73,-18.89 Q 140,-177.77 140,-204.62 Z M 140,-293.85 v -64.61 h 64.62 v 64.61 z m 0,-153.84 v -64.62 h 64.62 v 64.62 z m 0,-153.85 v -64.61 h 64.62 v 64.61 z M 293.85,-140 v -64.62 h 64.61 V -140 Z m 153.84,0 v -64.62 h 64.62 V -140 Z m 153.85,0 v -64.62 h 64.61 V -140 Z"
     id="path1"
     style="fill:#ffffff;fill-opacity:1" />
</svg>
