<?xml version="1.0" encoding="UTF-8" standalone="no"?>
<svg
   height="24"
   viewBox="0 -960 960 960"
   width="24"
   fill="FFFFFF"
   version="1.1"
   id="svg1"
   xmlns="http://www.w3.org/2000/svg"
   xmlns:svg="http://www.w3.org/2000/svg">
  <defs
     id="defs1" />
  <path
     d="m 868.08,-746.69 q 0,-47.54 -32.89,-80.42 Q 802.31,-860 754.77,-860 v -47.69 q 66.92,0 113.96,47.04 47.04,47.04 47.04,113.96 z M 241.15,-64.62 q -73.38,0 -124.96,-51.63 -51.57,-51.64 -51.57,-124.9 h 47.69 q 0,53.38 37.73,91.11 37.74,37.73 91.11,37.73 z M 419.31,-70 q -27.47,0 -51.27,-12.35 -23.81,-12.34 -39.65,-35.42 l -250,-366.08 16.3,-15.69 q 15.93,-15.92 37.7,-17.96 21.76,-2.04 39.69,10.65 L 300,-417.77 v -361.07 q 0,-12.75 8.63,-21.38 8.63,-8.62 21.38,-8.62 12.76,0 21.37,8.62 8.62,8.63 8.62,21.38 v 476.61 l -162.23,-113.62 180.08,263.62 q 6.54,10.31 17.65,16.27 11.12,5.96 23.81,5.96 H 670 q 37.61,0 63.81,-26.19 Q 760,-182.39 760,-220 v -530 q 0,-12.75 8.63,-21.37 8.63,-8.63 21.38,-8.63 12.76,0 21.37,8.63 8.62,8.62 8.62,21.37 v 530 q 0,62.15 -43.92,106.07 Q 732.15,-70 670,-70 Z m 34.15,-420 v -368.84 q 0,-12.75 8.63,-21.38 8.63,-8.62 21.39,-8.62 12.75,0 21.37,8.62 8.61,8.63 8.61,21.38 V -490 Z m 153.46,0 v -328.84 q 0,-12.75 8.63,-21.38 8.63,-8.62 21.39,-8.62 12.75,0 21.37,8.62 8.61,8.63 8.61,21.38 V -490 Z m -127.84,180 z"
     id="path1"
     style="fill:#ffffff;fill-opacity:1" />
</svg>
