<?xml version="1.0" encoding="UTF-8" standalone="no"?>
<svg
   height="24"
   viewBox="0 -960 960 960"
   width="24"
   fill="FFFFFF"
   version="1.1"
   id="svg1"
   xmlns="http://www.w3.org/2000/svg"
   xmlns:svg="http://www.w3.org/2000/svg">
  <defs
     id="defs1" />
  <path
     d="M 630.92,-441.08 586,-486 q 9,-49.69 -28.35,-89.35 Q 520.31,-615 466,-606 l -44.92,-44.92 q 13.54,-6.08 27.77,-9.12 14.23,-3.04 31.15,-3.04 68.08,0 115.58,47.5 47.5,47.5 47.5,115.58 0,16.92 -3.04,31.54 -3.04,14.61 -9.12,27.38 z M 758.15,-316.62 714,-358 q 38,-29 67.5,-63.5 Q 811,-456 832,-500 782,-601 688.5,-660.5 595,-720 480,-720 q -29,0 -57,4 -28,4 -55,12 l -46.61,-46.61 q 37.92,-15.08 77.46,-22.23 39.54,-7.16 81.15,-7.16 140.61,0 253.61,77.54 113,77.54 164.85,202.46 -22.23,53.61 -57.42,100.08 -35.2,46.46 -82.89,83.3 z m 32.31,231.39 -161.84,-160.62 q -30.77,11.39 -68.2,18.62 Q 523,-220 480,-220 339,-220 226.39,-297.54 113.77,-375.08 61.54,-500 q 22.15,-53 57.23,-98.88 35.08,-45.89 77.23,-79.58 l -110.77,-112 42.16,-42.15 705.22,705.22 z m -552.3,-551.08 q -31.7,25.23 -61.66,60.66 -29.96,35.42 -48.5,75.65 50,101 143.5,160.5 93.5,59.5 208.5,59.5 27.31,0 54.39,-4.62 27.07,-4.61 45.92,-9.53 L 529.69,-346 q -10.23,4.15 -23.69,6.61 -13.46,2.47 -26,2.47 -68.08,0 -115.58,-47.5 -47.5,-47.5 -47.5,-115.58 0,-12.15 2.47,-25.42 2.46,-13.27 6.61,-24.27 z M 541,-531 Z m -131.77,65.77 z"
     id="path1"
     style="fill:#ffffff;fill-opacity:1" />
</svg>
