<?xml version="1.0" encoding="UTF-8" standalone="no"?>
<svg
   height="24"
   viewBox="0 -960 960 960"
   width="24"
   fill="FFFFFF"
   version="1.1"
   id="svg1"
   xmlns="http://www.w3.org/2000/svg"
   xmlns:svg="http://www.w3.org/2000/svg">
  <defs
     id="defs1" />
  <path
     d="m 820,-252.85 -60,-60 V -750 q 0,-12.75 8.63,-21.37 8.63,-8.63 21.38,-8.63 12.76,0 21.37,8.63 8.62,8.62 8.62,21.37 z m -460,-460 -60,-59.99 v -6 q 0,-12.75 8.63,-21.38 8.63,-8.62 21.38,-8.62 12.76,0 21.37,8.62 8.62,8.63 8.62,21.38 z m 153.46,153.46 -60,-59.99 v -239.46 q 0,-12.75 8.63,-21.38 8.63,-8.62 21.39,-8.62 12.75,0 21.37,8.62 8.61,8.63 8.61,21.38 z m 153.46,73.7 h -60 v -333.15 q 0,-12.75 8.63,-21.38 8.63,-8.62 21.39,-8.62 12.75,0 21.37,8.62 8.61,8.63 8.61,21.38 z M 724.31,-150.77 360,-515.08 v 212.85 l -162.23,-113.62 180.08,263.62 q 6.54,10.31 17.65,16.27 11.12,5.96 23.81,5.96 H 670 q 15.77,0 29.88,-5.58 14.12,-5.58 24.43,-15.19 z m -305,80.77 q -27.47,0 -51.27,-12.35 -23.81,-12.34 -39.65,-35.42 l -250,-366.08 16.3,-15.69 q 15.93,-15.92 37.7,-17.96 21.76,-2.04 39.69,10.65 L 300,-417.77 V -575.08 L 51.23,-823.85 94,-866.61 l 780.46,780.46 -42.77,42.76 -64.38,-64.38 q -19.62,17.31 -44.2,27.54 Q 698.54,-70 670,-70 Z m 123.15,-262.62 z m 44.08,-153.07 z"
     id="path1"
     style="fill:#ffffff;fill-opacity:1" />
</svg>
