<?xml version="1.0" encoding="UTF-8" standalone="no"?>
<svg
   height="24"
   viewBox="0 -960 960 960"
   width="24"
   fill="FFFFFF"
   version="1.1"
   id="svg1"
   xmlns="http://www.w3.org/2000/svg"
   xmlns:svg="http://www.w3.org/2000/svg">
  <defs
     id="defs1" />
  <path
     d="m 481.54,-180 q -125.63,0 -212.81,-87.17 -87.19,-87.17 -87.19,-212.77 0,-125.6 87.19,-212.83 87.18,-87.23 212.81,-87.23 70.15,0 132.77,31.19 62.61,31.2 104.15,88.04 V -780 h 60 v 244.61 H 533.85 v -59.99 h 158 q -31.62,-57.93 -87.7,-91.27 Q 548.08,-720 481.54,-720 q -100,0 -170,70 -70,70 -70,170 0,100 70,170 70,70 170,70 77,0 139,-44 62,-44 87,-116 h 63.23 Q 743.54,-302.08 663.5,-241.04 583.46,-180 481.54,-180 Z"
     id="path1"
     style="fill:#ffffff;fill-opacity:1" />
</svg>
