<?xml version="1.0" encoding="UTF-8" standalone="no"?>
<svg
   height="24"
   viewBox="0 -960 960 960"
   width="24"
   fill="FFFFFF"
   version="1.1"
   id="svg1"
   xmlns="http://www.w3.org/2000/svg"
   xmlns:svg="http://www.w3.org/2000/svg">
  <defs
     id="defs1" />
  <path
     d="m 387.69,-100 -15.23,-121.85 q -16.07,-5.38 -32.96,-15.07 -16.88,-9.7 -30.19,-20.77 l -112.85,47.69 -92.3,-160 97.61,-73.77 q -1.38,-8.92 -1.96,-17.92 -0.58,-9 -0.58,-17.93 0,-8.53 0.58,-17.34 0.58,-8.81 1.96,-19.27 l -97.61,-73.77 92.3,-159.23 112.46,47.31 q 14.47,-11.46 30.89,-20.96 16.42,-9.5 32.27,-15.27 L 387.69,-860 h 184.62 l 15.23,122.23 q 18,6.54 32.57,15.27 14.58,8.73 29.43,20.58 l 114,-47.31 92.3,159.23 -99.15,74.92 q 2.15,9.69 2.35,18.12 0.19,8.42 0.19,16.96 0,8.15 -0.39,16.58 -0.38,8.42 -2.76,19.27 l 98.38,74.15 -92.31,160 -112.61,-48.08 q -14.85,11.85 -30.31,20.96 -15.46,9.12 -31.69,14.89 L 572.31,-100 Z M 440,-160 h 78.62 L 533,-267.15 q 30.62,-8 55.96,-22.73 25.35,-14.74 48.89,-37.89 l 99.38,41.77 39.39,-68 -86.77,-65.38 q 5,-15.54 6.8,-30.47 1.81,-14.92 1.81,-30.15 0,-15.62 -1.81,-30.15 -1.8,-14.54 -6.8,-29.7 L 777.38,-606 738,-674 637.46,-631.62 q -20.08,-21.46 -48.11,-37.92 -28.04,-16.46 -56.73,-23.31 L 520,-800 h -79.38 l -13.24,106.77 q -30.61,7.23 -56.53,22.15 -25.93,14.93 -49.47,38.46 L 222,-674 l -39.38,68 86.38,64.38 q -5,14.24 -7,29.62 -2,15.38 -2,32.38 0,15.62 2,30.62 2,15 6.62,29.62 l -86,65.38 39.38,68 99,-42 q 22.77,23.38 48.69,38.31 25.93,14.92 57.31,22.92 z m 40.46,-200 q 49.92,0 84.96,-35.04 35.04,-35.04 35.04,-84.96 0,-49.92 -35.04,-84.96 -35.04,-35.04 -84.96,-35.04 -50.54,0 -85.27,35.04 -34.73,35.04 -34.73,84.96 0,49.92 34.73,84.96 34.73,35.04 85.27,35.04 z M 480,-480 Z"
     id="path1"
     style="fill:#ffffff;fill-opacity:1" />
</svg>
