<?xml version="1.0" encoding="UTF-8" standalone="no"?>
<svg
   height="24"
   viewBox="0 -960 960 960"
   width="24"
   fill="FFFFFF"
   version="1.1"
   id="svg1"
   xmlns="http://www.w3.org/2000/svg"
   xmlns:svg="http://www.w3.org/2000/svg">
  <defs
     id="defs1" />
  <path
     d="m 481.15,-140 q -141.66,0 -240.83,-99.17 -99.16,-99.16 -99.16,-240.83 0,-135.77 92.11,-232.88 92.11,-97.12 225.57,-105.2 8.62,0 16.93,0.62 8.3,0.62 16.3,1.85 -30.61,28.61 -48.76,69.15 -18.16,40.54 -18.16,86.46 0,98.33 68.84,167.17 68.83,68.83 167.16,68.83 46.54,0 86.77,-18.15 40.23,-18.16 68.46,-48.77 1.23,8 1.85,16.31 0.61,8.3 0.61,16.92 -7.69,133.46 -104.8,225.57 Q 616.92,-140 481.15,-140 Z m 0,-60 q 88,0 158,-48.5 70,-48.5 102,-126.5 -20,5 -40,8 -20,3 -40,3 -123,0 -209.5,-86.5 -86.5,-86.5 -86.5,-209.5 0,-20 3,-40 3,-20 8,-40 -78,32 -126.5,102 -48.5,70 -48.5,158 0,116 82,198 82,82 198,82 z m -10,-270 z"
     id="path1"
     style="fill:#ffffff;fill-opacity:1" />
</svg>
