<?xml version="1.0" encoding="UTF-8" standalone="no"?>
<svg
   height="24"
   viewBox="0 -960 960 960"
   width="24"
   fill="FFFFFF"
   version="1.1"
   id="svg1"
   xmlns="http://www.w3.org/2000/svg"
   xmlns:svg="http://www.w3.org/2000/svg">
  <defs
     id="defs1" />
  <path
     d="m 480.09,-336.92 q 67.99,0 115.49,-47.59 47.5,-47.59 47.5,-115.58 0,-67.99 -47.59,-115.49 -47.59,-47.5 -115.58,-47.5 -67.99,0 -115.49,47.59 -47.5,47.59 -47.5,115.58 0,67.99 47.59,115.49 47.59,47.5 115.58,47.5 z M 480,-392 q -45,0 -76.5,-31.5 Q 372,-455 372,-500 q 0,-45 31.5,-76.5 31.5,-31.5 76.5,-31.5 45,0 76.5,31.5 31.5,31.5 31.5,76.5 0,45 -31.5,76.5 Q 525,-392 480,-392 Z m 0.05,172 Q 342.08,-220 228.62,-296.12 115.16,-372.23 61.54,-500 115.16,-627.77 228.56,-703.88 341.97,-780 479.95,-780 q 137.97,0 251.43,76.12 113.46,76.11 167.08,203.88 -53.62,127.77 -167.02,203.88 Q 618.03,-220 480.05,-220 Z M 480,-500 Z m 0,220 q 113,0 207.5,-59.5 Q 782,-399 832,-500 782,-601 687.5,-660.5 593,-720 480,-720 367,-720 272.5,-660.5 178,-601 128,-500 178,-399 272.5,-339.5 367,-280 480,-280 Z"
     id="path1"
     style="fill:#ffffff;fill-opacity:1" />
</svg>
